<svg width="15" height="25" viewBox="0 0 15 25" fill="none" xmlns="http://www.w3.org/2000/svg">
<path d="M14.6667 1.66662C14.6667 1.4898 14.5964 1.32024 14.4714 1.19521C14.3464 1.07019 14.1768 0.999949 14 0.999949H10.6667C8.98816 0.916337 7.3448 1.50047 6.09563 2.62472C4.84646 3.74897 4.09305 5.32194 4 6.99995V10.5999H0.666667C0.489856 10.5999 0.320287 10.6702 0.195262 10.7952C0.070238 10.9202 0 11.0898 0 11.2666V14.7333C0 14.9101 0.070238 15.0797 0.195262 15.2047C0.320287 15.3297 0.489856 15.4 0.666667 15.4H4V24.3333C4 24.5101 4.07024 24.6797 4.19526 24.8047C4.32029 24.9297 4.48986 25 4.66667 25H8.66667C8.84348 25 9.01305 24.9297 9.13807 24.8047C9.2631 24.6797 9.33333 24.5101 9.33333 24.3333V15.4H12.8267C12.9749 15.4021 13.1197 15.3547 13.238 15.2654C13.3563 15.176 13.4415 15.0498 13.48 14.9066L14.44 11.4399C14.4665 11.3414 14.4701 11.2382 14.4504 11.1381C14.4308 11.038 14.3884 10.9437 14.3265 10.8626C14.2647 10.7814 14.1851 10.7156 14.0938 10.67C14.0025 10.6245 13.902 10.6005 13.8 10.5999H9.33333V6.99995C9.3665 6.66992 9.52149 6.3641 9.76803 6.14221C10.0146 5.92032 10.335 5.79829 10.6667 5.79995H14C14.1768 5.79995 14.3464 5.72971 14.4714 5.60469C14.5964 5.47966 14.6667 5.31009 14.6667 5.13328V1.66662Z" fill="#6B4897"/>
</svg>
