<svg width="24" height="24" viewBox="0 0 24 24" fill="none" xmlns="http://www.w3.org/2000/svg">
<path d="M23.5313 9.825H12.2407V14.4656H18.6907C18.4126 15.9656 17.5688 17.2344 16.2969 18.0844C15.2219 18.8031 13.8501 19.2281 12.2376 19.2281C9.11569 19.2281 6.47507 17.1187 5.53132 14.2844C5.29382 13.5656 5.15632 12.7969 5.15632 12.0063C5.15632 11.2156 5.29382 10.4469 5.53132 9.72812C6.47819 6.89687 9.11882 4.7875 12.2407 4.7875C14.0001 4.7875 15.5782 5.39375 16.8219 6.58125L20.2594 3.14062C18.1813 1.20312 15.4719 0.015625 12.2407 0.015625C7.55632 0.015625 3.50319 2.70312 1.53132 6.62187C0.718817 8.24062 0.256317 10.0719 0.256317 12.0094C0.256317 13.9469 0.718817 15.775 1.53132 17.3937C3.50319 21.3125 7.55632 24 12.2407 24C15.4782 24 18.1907 22.925 20.1719 21.0938C22.4376 19.0063 23.7469 15.9313 23.7469 12.2781C23.7469 11.4281 23.6719 10.6125 23.5313 9.825Z" fill="#6B4897"/>
</svg>
