<svg width="74" height="64" viewBox="0 0 74 64" fill="none" xmlns="http://www.w3.org/2000/svg">
<path d="M36.5719 27.4291C25.2278 27.4291 9.14381 44.966 9.14381 56.0358C9.14381 61.0215 12.9737 64 19.3922 64C26.3692 64 30.9763 60.4172 36.5719 60.4172C42.2161 60.4172 46.8361 64 53.7517 64C60.1701 64 64.0001 61.0215 64.0001 56.0358C64.0001 44.966 47.916 27.4291 36.5719 27.4291ZM15.5323 25.6277C14.0466 20.6778 9.46952 17.4722 5.30958 18.4664C1.14965 19.4607 -1.01746 24.2792 0.468232 29.2291C1.95392 34.179 6.53099 37.3847 10.6909 36.3904C14.8509 35.3962 17.018 30.5777 15.5323 25.6277ZM27.6349 22.6592C32.0549 21.4964 34.2663 15.525 32.5749 9.32229C30.8835 3.11953 25.9293 -0.964692 21.5093 0.198147C17.0894 1.36099 14.878 7.33232 16.5694 13.5351C18.2608 19.7378 23.2164 23.8235 27.6349 22.6592ZM67.8329 18.4679C63.6729 17.4736 59.0973 20.6793 57.6102 25.6292C56.1245 30.5791 58.2916 35.3976 62.4515 36.3919C66.6115 37.3861 71.1871 34.1805 72.6742 29.2305C74.1599 24.2806 71.9928 19.4621 67.8329 18.4679ZM45.5089 22.6592C49.9289 23.8221 54.8831 19.7378 56.5745 13.5351C58.2659 7.33232 56.0545 1.36241 51.6346 0.198147C47.2146 -0.966121 42.2604 3.11953 40.569 9.32229C38.8776 15.525 41.089 21.4964 45.5089 22.6592Z" fill="white"/>
</svg>
