<svg width="33" height="32" viewBox="0 0 33 32" fill="none" xmlns="http://www.w3.org/2000/svg">
<path d="M16.5284 14.2859C12.2744 14.2859 6.24289 20.8623 6.24289 25.0134C6.24289 26.8831 7.67912 28 10.086 28C12.7024 28 14.4301 26.6565 16.5284 26.6565C18.645 26.6565 20.3775 28 22.9708 28C25.3778 28 26.814 26.8831 26.814 25.0134C26.814 20.8623 20.7825 14.2859 16.5284 14.2859ZM8.63857 13.6104C8.08144 11.7542 6.36503 10.5521 4.80506 10.9249C3.24508 11.2978 2.43242 13.1047 2.98955 14.9609C3.54669 16.8171 5.26309 18.0193 6.82306 17.6464C8.38304 17.2736 9.1957 15.4666 8.63857 13.6104ZM13.1771 12.4972C14.8345 12.0611 15.6638 9.82189 15.0295 7.49586C14.3953 5.16982 12.5374 3.63824 10.88 4.07431C9.22249 4.51037 8.39322 6.74962 9.02749 9.07565C9.66177 11.4017 11.5201 12.9338 13.1771 12.4972ZM28.2513 10.9254C26.6913 10.5526 24.9755 11.7547 24.4178 13.6109C23.8606 15.4672 24.6733 17.2741 26.2333 17.6469C27.7933 18.0198 29.5091 16.8177 30.0668 14.9615C30.6239 13.1052 29.8113 11.2983 28.2513 10.9254ZM19.8798 12.4972C21.5373 12.9333 23.3951 11.4017 24.0294 9.07565C24.6637 6.74962 23.8344 4.51091 22.1769 4.07431C20.5195 3.6377 18.6616 5.16982 18.0273 7.49586C17.3931 9.82189 18.2223 12.0611 19.8798 12.4972Z" fill="#212121"/>
</svg>
