<svg width="21" height="24" viewBox="0 0 21 24" fill="none" xmlns="http://www.w3.org/2000/svg">
<g clip-path="url(#clip0_410_5)">
<path d="M8.77656 5.4707C8.90216 5.41097 9.03954 5.38002 9.17867 5.3801H15.0132C15.7041 5.3801 16.3485 5.425 16.9374 5.51965C17.1022 5.54589 17.2661 5.57722 17.429 5.61359C17.6598 5.66445 17.8879 5.7267 18.1125 5.8001C18.4021 5.89666 18.6717 6.00911 18.9195 6.14079C19.2115 4.27992 18.9174 3.01444 17.9099 1.86808C16.8004 0.605932 14.7966 0.0648193 12.2323 0.0648193H4.78951C4.26549 0.0648193 3.81969 0.445799 3.73757 0.962356L0.638779 20.5882C0.577185 20.9758 0.877276 21.3258 1.26944 21.3258H5.86462L8.25858 6.16527C8.28212 6.01625 8.34156 5.87518 8.43179 5.75419C8.52202 5.6332 8.64033 5.53591 8.77656 5.4707V5.4707Z" fill="white"/>
<path d="M17.8926 5.73198C17.7397 5.68737 17.5853 5.64788 17.4297 5.61357C17.2667 5.5778 17.1028 5.54668 16.9381 5.52027C16.3486 5.42499 15.7046 5.38001 15.0131 5.38001H9.17927C9.04005 5.37969 8.90256 5.41091 8.77716 5.47132C8.64079 5.53633 8.52234 5.63356 8.43207 5.75458C8.3418 5.87561 8.28243 6.01679 8.25911 6.16589L7.01912 14.0174L6.98331 14.2463C7.06487 13.7296 7.50733 13.3486 8.03136 13.3486H10.2153C14.5044 13.3486 17.8628 11.6088 18.8438 6.57603C18.873 6.42719 18.8976 6.28295 18.9201 6.14078C18.6716 6.00981 18.4027 5.89664 18.1132 5.80072C18.0401 5.77653 17.9666 5.75361 17.8927 5.73198" fill="white" fill-opacity="0.6"/>
</g>
<defs>
<clipPath id="clip0_410_5">
<rect width="20.3721" height="24" fill="white" transform="translate(0.62793)"/>
</clipPath>
</defs>
</svg>
